<?xml version="1.0" encoding="UTF-8" standalone="no"?>
<!DOCTYPE svg PUBLIC "-//W3C//DTD SVG 1.1//EN" "http://www.w3.org/Graphics/SVG/1.1/DTD/svg11.dtd">
<svg width="100%" height="100%" viewBox="0 0 218 218" version="1.1" xmlns="http://www.w3.org/2000/svg" xmlns:xlink="http://www.w3.org/1999/xlink" xml:space="preserve" xmlns:serif="http://www.serif.com/" style="fill-rule:evenodd;clip-rule:evenodd;stroke-linejoin:round;stroke-miterlimit:2;">
    <g>
        <path d="M199.609,0L17.5,0C7.851,0 0,7.851 0,17.5L0,199.609C0,209.258 7.851,217.109 17.5,217.109L199.609,217.109C209.258,217.109 217.109,209.258 217.109,199.609L217.109,17.5C217.109,7.851 209.259,0 199.609,0ZM199.609,202.109L17.5,202.109C16.145,202.109 15,200.964 15,199.609L15,17.5C15,16.145 16.145,15 17.5,15L199.609,15C200.964,15 202.109,16.145 202.109,17.5L202.109,102.555L188.488,102.555L188.488,98.998C188.488,86.506 178.325,76.343 165.832,76.343L148.371,76.343C135.878,76.343 125.715,86.506 125.715,98.998L125.715,102.555L108.555,102.555C105.242,102.555 102.555,105.241 102.555,108.555C102.555,111.869 105.242,114.555 108.555,114.555L202.11,114.555L202.11,199.61C202.109,200.964 200.965,202.109 199.609,202.109ZM137.715,102.555L137.715,98.998C137.715,93.122 142.495,88.343 148.371,88.343L165.832,88.343C171.708,88.343 176.488,93.123 176.488,98.998L176.488,102.555L137.715,102.555Z" style="fill:rgb(68,68,68);fill-rule:nonzero;"/>
        <path d="M70.537,32.079L47.186,32.079C37.536,32.079 29.686,39.93 29.686,49.579L29.686,167.896C29.686,177.545 37.536,185.396 47.186,185.396L70.538,185.396C80.187,185.396 88.038,177.545 88.038,167.896L88.038,49.579C88.037,39.93 80.187,32.079 70.537,32.079ZM73.037,167.896C73.037,169.251 71.892,170.396 70.537,170.396L47.186,170.396C45.831,170.396 44.686,169.251 44.686,167.896L44.686,49.579C44.686,48.224 45.831,47.079 47.186,47.079L70.538,47.079C71.893,47.079 73.038,48.224 73.038,49.579L73.038,167.896L73.037,167.896Z" style="fill:rgb(68,68,68);fill-rule:nonzero;"/>
        <path d="M157.033,73.195C169.831,73.195 180.242,62.781 180.242,49.979C180.242,37.177 169.831,26.763 157.033,26.763C144.233,26.763 133.82,37.178 133.82,49.979C133.82,62.78 144.233,73.195 157.033,73.195ZM157.033,38.764C163.214,38.764 168.242,43.795 168.242,49.98C168.242,56.165 163.214,61.196 157.033,61.196C150.85,61.196 145.82,56.165 145.82,49.98C145.82,43.795 150.851,38.764 157.033,38.764Z" style="fill:rgb(68,68,68);fill-rule:nonzero;"/>
        <path d="M182.367,128.639L131.84,128.639C128.526,128.639 125.84,131.326 125.84,134.639C125.84,137.953 128.527,140.639 131.84,140.639L182.367,140.639C185.68,140.639 188.367,137.953 188.367,134.639C188.367,131.325 185.681,128.639 182.367,128.639Z" style="fill:rgb(68,68,68);fill-rule:nonzero;"/>
        <path d="M108.555,127.145C106.575,127.145 104.645,127.945 103.255,129.335C101.855,130.735 101.055,132.665 101.055,134.635C101.055,136.615 101.855,138.545 103.255,139.945C104.645,141.335 106.585,142.135 108.555,142.135C110.525,142.135 112.454,141.335 113.855,139.945C115.255,138.545 116.055,136.615 116.055,134.635C116.055,132.665 115.255,130.735 113.855,129.335C112.465,127.944 110.534,127.145 108.555,127.145Z" style="fill:rgb(68,68,68);fill-rule:nonzero;"/>
        <path d="M182.367,151.753L131.84,151.753C128.526,151.753 125.84,154.44 125.84,157.753C125.84,161.067 128.527,163.753 131.84,163.753L182.367,163.753C185.68,163.753 188.367,161.067 188.367,157.753C188.367,154.439 185.681,151.753 182.367,151.753Z" style="fill:rgb(68,68,68);fill-rule:nonzero;"/>
        <path d="M108.555,150.254C106.585,150.254 104.645,151.054 103.255,152.454C101.855,153.844 101.055,155.774 101.055,157.754C101.055,159.724 101.855,161.664 103.255,163.054C104.645,164.454 106.585,165.254 108.555,165.254C110.525,165.254 112.465,164.454 113.855,163.054C115.255,161.654 116.055,159.724 116.055,157.754C116.055,155.784 115.255,153.844 113.855,152.454C112.465,151.055 110.524,150.254 108.555,150.254Z" style="fill:rgb(68,68,68);fill-rule:nonzero;"/>
        <path d="M182.367,174.867L131.84,174.867C128.526,174.867 125.84,177.553 125.84,180.867C125.84,184.18 128.527,186.867 131.84,186.867L182.367,186.867C185.68,186.867 188.367,184.18 188.367,180.867C188.367,177.554 185.681,174.867 182.367,174.867Z" style="fill:rgb(68,68,68);fill-rule:nonzero;"/>
        <path d="M108.555,173.365C106.585,173.365 104.645,174.165 103.255,175.565C101.855,176.955 101.055,178.895 101.055,180.865C101.055,182.845 101.855,184.775 103.255,186.175C104.645,187.565 106.585,188.365 108.555,188.365C110.525,188.365 112.465,187.565 113.855,186.175C115.255,184.775 116.055,182.835 116.055,180.865C116.055,178.895 115.255,176.965 113.855,175.565C112.465,174.165 110.524,173.365 108.555,173.365Z" style="fill:rgb(68,68,68);fill-rule:nonzero;"/>
    </g>
</svg>
