<?xml version="1.0" encoding="UTF-8" standalone="no"?>
<!DOCTYPE svg PUBLIC "-//W3C//DTD SVG 1.1//EN" "http://www.w3.org/Graphics/SVG/1.1/DTD/svg11.dtd">
<svg width="100%" height="100%" viewBox="0 0 242 242" version="1.1" xmlns="http://www.w3.org/2000/svg" xmlns:xlink="http://www.w3.org/1999/xlink" xml:space="preserve" xmlns:serif="http://www.serif.com/" style="fill-rule:evenodd;clip-rule:evenodd;stroke-linejoin:round;stroke-miterlimit:2;">
    <g>
        <path d="M198.602,70.402L120.539,139.191L42.459,70.401C39.35,67.662 34.611,67.963 31.873,71.07C29.136,74.178 29.434,78.917 32.543,81.656L115.582,154.815C116.999,156.063 118.77,156.687 120.54,156.687C122.31,156.687 124.082,156.063 125.499,154.814L208.521,81.655C211.628,78.917 211.927,74.177 209.189,71.069C206.449,67.964 201.711,67.664 198.602,70.402Z" style="fill:rgb(68,68,68);fill-rule:nonzero;"/>
        <path d="M218.561,38.529L22.5,38.529C10.094,38.529 0,48.622 0,61.029L0,180.031C0,192.438 10.094,202.531 22.5,202.531L218.561,202.531C230.967,202.531 241.061,192.438 241.061,180.031L241.061,61.029C241.061,48.623 230.967,38.529 218.561,38.529ZM226.061,180.031C226.061,184.166 222.697,187.531 218.561,187.531L22.5,187.531C18.364,187.531 15,184.166 15,180.031L15,61.029C15,56.894 18.364,53.529 22.5,53.529L218.561,53.529C222.697,53.529 226.061,56.894 226.061,61.029L226.061,180.031Z" style="fill:rgb(68,68,68);fill-rule:nonzero;"/>
    </g>
</svg>
